<svg width="192" height="192" viewBox="0 0 192 192" fill="none" xmlns="http://www.w3.org/2000/svg">
<circle cx="96" cy="96" r="95" fill="#EDEAE4" stroke="#565656" stroke-width="2"/>
<path d="M96.0008 54.9198C112.249 54.9198 126.853 60.5285 136.688 70.6171C144.78 71.6695 152.414 74.9742 158.72 80.1545C147.686 56.9673 124.832 44 96.0008 44C67.5637 44 44.5516 56.9498 33.3867 80.067C39.1681 75.3483 46.0646 72.1938 53.4152 70.9059C63.0663 60.3798 78.2736 54.9198 96.0008 54.9198Z" fill="#4A4949"/>
<path d="M131.001 148.998C121.896 149.009 113.148 145.461 106.623 139.111L106.606 139.094C105.852 138.527 105.043 138.038 104.191 137.632C101.626 136.442 98.828 135.841 96.001 135.874C92.3786 135.874 89.6224 136.775 87.8199 137.632C86.965 138.037 86.1531 138.527 85.3962 139.094L85.3787 139.111C81.2646 143.105 76.2323 146.027 70.7242 147.62C65.2162 149.214 59.401 149.429 53.7901 148.248C48.1792 147.067 42.9444 144.525 38.546 140.847C34.1476 137.168 30.7203 132.466 28.5655 127.152C26.4107 121.838 25.5944 116.077 26.1883 110.374C26.7822 104.671 28.7681 99.201 31.9715 94.4455C35.1749 89.6899 39.4976 85.7942 44.5596 83.1009C49.6215 80.4076 55.2677 78.9992 61.0015 78.9995H131.001C140.283 78.9995 149.185 82.6869 155.749 89.2506C162.313 95.8143 166 104.717 166 113.999C166 123.281 162.313 132.184 155.749 138.747C149.185 145.311 140.283 148.998 131.001 148.998Z" fill="#4A4949"/>
</svg>
